<svg width="65" height="72" viewBox="0 0 65 72" fill="none" xmlns="http://www.w3.org/2000/svg">
<path fill-rule="evenodd" clip-rule="evenodd" d="M3.52255 54.5476C4.24182 58.6268 8.1318 61.3506 12.211 60.6313C16.2901 59.9121 19.0139 56.0221 18.2946 51.9429C17.5754 47.8638 13.6854 45.14 9.60624 45.8592C5.52708 46.5785 2.80329 50.4685 3.52255 54.5476ZM11.3427 55.7073C9.98303 55.947 8.68634 55.0391 8.44659 53.6794C8.20684 52.3197 9.1148 51.023 10.4745 50.7833C11.8342 50.5435 13.1309 51.4515 13.3706 52.8112C13.6103 54.1708 12.7024 55.4675 11.3427 55.7073Z" fill="#333333" fill-opacity="0.1"/>
<path fill-rule="evenodd" clip-rule="evenodd" d="M23.2186 51.0747C23.9379 55.1538 27.8279 57.8776 31.907 57.1584C35.9862 56.4391 38.71 52.5491 37.9907 48.47L36.2543 38.6219C35.535 34.5428 31.645 31.819 27.5659 32.5382C23.4867 33.2575 20.7629 37.1475 21.4822 41.2266L23.2186 51.0747ZM31.0388 52.2343C29.6791 52.4741 28.3824 51.5661 28.1427 50.2064L26.4062 40.3584C26.1665 38.9987 27.0744 37.702 28.4341 37.4623C29.7938 37.2225 31.0905 38.1305 31.3302 39.4902L33.0667 49.3382C33.3064 50.6979 32.3985 51.9946 31.0388 52.2343Z" fill="#333333" fill-opacity="0.1"/>
<path fill-rule="evenodd" clip-rule="evenodd" d="M42.9147 47.6017C43.634 51.6809 47.524 54.4047 51.6031 53.6854C55.6823 52.9661 58.4061 49.0762 57.6868 44.997L54.2139 25.3009C53.4946 21.2218 49.6046 18.498 45.5255 19.2172C41.4463 19.9365 38.7225 23.8265 39.4418 27.9056L42.9147 47.6017ZM50.7349 48.7614C49.3752 49.0011 48.0785 48.0932 47.8388 46.7335L44.3658 27.0374C44.1261 25.6777 45.034 24.381 46.3937 24.1413C47.7534 23.9015 49.0501 24.8095 49.2898 26.1691L52.7628 45.8652C53.0025 47.2249 52.0946 48.5216 50.7349 48.7614Z" fill="#333333" fill-opacity="0.1"/>
<path fill-rule="evenodd" clip-rule="evenodd" d="M1.60882 69.6087C1.84858 70.9685 3.14523 71.8764 4.50496 71.6366L62.6084 61.3914C63.9682 61.1516 64.8761 59.855 64.6363 58.4953C64.3966 57.1355 63.0999 56.2276 61.7402 56.4674L3.63672 66.7126C2.27699 66.9523 1.36906 68.249 1.60882 69.6087Z" fill="#333333" fill-opacity="0.1"/>
<path d="M46.772 11.8895C47.0117 13.2492 46.1038 14.5459 44.7441 14.7856C43.3843 15.0254 42.0877 14.1175 41.8479 12.7577L41.1595 8.85352L33.2939 20.0867C30.918 23.4799 26.2414 24.3043 22.8484 21.9285L22.3516 21.5806C21.2206 20.7887 19.6617 21.0636 18.8698 22.1946L5.51456 41.2678C4.72262 42.3988 3.16375 42.6737 2.03274 41.8817C0.901727 41.0898 0.626858 39.5309 1.4188 38.3999L14.774 19.3267C17.1498 15.9337 21.8265 15.1091 25.2195 17.4849L25.7163 17.8328C26.8474 18.6247 28.4062 18.3499 29.1982 17.2188L37.0637 5.98563L33.1595 6.67405C31.7998 6.91381 30.5032 6.00589 30.2634 4.64615C30.0236 3.28641 30.9316 1.98977 32.2913 1.75001L37.2153 0.881772C41.2945 0.162507 45.1845 2.88631 45.9037 6.96546L46.772 11.8895Z" fill="#333333" fill-opacity="0.1"/>
</svg>
