<svg width="58" height="73" viewBox="0 0 58 73" fill="none" xmlns="http://www.w3.org/2000/svg">
<path fill-rule="evenodd" clip-rule="evenodd" d="M36.1437 62.0971C39.5358 64.4713 44.2101 63.6477 46.5863 60.2571C46.5866 60.2567 46.5869 60.2562 46.5872 60.2558C47.1897 59.3973 47.605 58.4217 47.8062 57.3923L57.2342 9.05836L57.2343 9.05823C57.7834 6.24369 56.6829 3.23244 54.1743 1.47583C51.6654 -0.280868 48.4594 -0.285043 46.0023 1.19367L3.80816 26.5842C2.90944 27.1253 2.13459 27.8493 1.53391 28.7093C-0.840311 32.1016 -0.0161787 36.7762 3.3749 39.152C4.45193 39.9084 5.70957 40.367 7.02068 40.4815L7.02101 40.4815L24.284 41.9904L24.2843 41.9904C24.7187 42.0283 25.1354 42.1803 25.4922 42.431L25.4987 42.4355C25.8563 42.6851 26.1417 43.0248 26.326 43.4201L26.3261 43.4202L33.6482 59.1261L33.6483 59.1263C34.2042 60.3189 35.065 61.3437 36.1437 62.0971ZM42.4924 57.3866C41.7004 58.5176 40.1416 58.7925 39.0104 58.0005L39.0073 57.9984C38.6497 57.7488 38.3643 57.4091 38.1801 57.0138L38.18 57.0136L30.8579 41.3076C30.302 40.1152 29.4413 39.0905 28.3628 38.3372C27.2863 37.5818 26.0296 37.1238 24.7194 37.0094L7.45605 35.5005L7.45573 35.5004C7.02137 35.4625 6.60473 35.3106 6.24797 35.0599L6.2446 35.0575C5.11354 34.2656 4.83868 32.7068 5.63067 31.5758L5.63274 31.5728C5.83183 31.2876 6.08869 31.0475 6.38663 30.8681L48.5804 5.47775C49.4059 4.98094 50.4742 4.98891 51.3064 5.57159C52.1383 6.15414 52.5113 7.15516 52.3268 8.10085L52.3267 8.10098L42.8991 56.4332C42.899 56.4335 42.899 56.4338 42.8989 56.4341C42.832 56.7756 42.6942 57.0992 42.4942 57.384L42.4924 57.3866Z" fill="#333333" fill-opacity="0.1"/>
<path fill-rule="evenodd" clip-rule="evenodd" d="M4.63693 72.2223C5.76794 73.0142 7.32681 72.7394 8.11875 71.6084L16.7224 59.3211C17.5143 58.1901 17.2395 56.6312 16.1085 55.8393C14.9774 55.0473 13.4186 55.3222 12.6266 56.4532L4.02299 68.7405C3.23105 69.8715 3.50592 71.4304 4.63693 72.2223Z" fill="#333333" fill-opacity="0.1"/>
<path fill-rule="evenodd" clip-rule="evenodd" d="M18.5643 69.7665C19.6953 70.5585 21.2542 70.2836 22.0461 69.1526L27.7818 60.9612C28.5737 59.8302 28.2989 58.2713 27.1679 57.4794C26.0368 56.6874 24.478 56.9623 23.686 58.0933L17.9503 66.2847C17.1584 67.4157 17.4333 68.9746 18.5643 69.7665Z" fill="#333333" fill-opacity="0.1"/>
<path fill-rule="evenodd" clip-rule="evenodd" d="M2.18116 58.2949C3.31218 59.0869 4.87104 58.812 5.66298 57.681L11.3987 49.4896C12.1906 48.3586 11.9158 46.7997 10.7847 46.0078C9.65372 45.2158 8.09486 45.4907 7.30292 46.6217L1.56722 54.8131C0.77528 55.9441 1.05015 57.503 2.18116 58.2949Z" fill="#333333" fill-opacity="0.1"/>
<path fill-rule="evenodd" clip-rule="evenodd" d="M31.2311 34.2419C32.3621 35.0338 33.921 34.7589 34.7129 33.6279L43.3166 21.3407C44.1085 20.2096 43.8337 18.6508 42.7026 17.8588C41.5716 17.0669 40.0128 17.3418 39.2208 18.4728L30.6172 30.76C29.8252 31.8911 30.1001 33.4499 31.2311 34.2419Z" fill="#333333" fill-opacity="0.1"/>
</svg>
