<svg width="65" height="70" viewBox="0 0 65 70" fill="none" xmlns="http://www.w3.org/2000/svg">
<path fill-rule="evenodd" clip-rule="evenodd" d="M55.1866 33.1344C55.4263 34.4941 56.723 35.402 58.0827 35.1623C62.162 34.443 64.8856 30.553 64.1664 26.4739C63.4471 22.3948 59.5573 19.6709 55.478 20.3902C54.1183 20.63 53.2103 21.9266 53.4501 23.2863C53.6898 24.6461 54.9865 25.554 56.3462 25.3142C57.706 25.0745 59.0026 25.9824 59.2424 27.3421C59.4821 28.7018 58.5742 29.9985 57.2145 30.2382C55.8547 30.478 54.9468 31.7746 55.1866 33.1344Z" fill="#333333" fill-opacity="0.1"/>
<path fill-rule="evenodd" clip-rule="evenodd" d="M48.0767 59.7725C45.8564 60.1257 43.7004 59.4612 42.0981 58.1266L30.5746 48.5282C30.2953 48.2955 29.9685 48.1265 29.6172 48.0331C29.2659 47.9396 28.8985 47.9239 28.5405 47.987L13.5916 50.6229C8.15272 51.582 2.96614 47.9503 2.00711 42.5114L0.27063 32.6633C-0.688398 27.2244 2.94329 22.0378 8.38221 21.0788L23.3311 18.4429C23.689 18.3798 24.0289 18.2393 24.3271 18.0313C24.6253 17.8234 24.8745 17.5529 25.0574 17.2387L32.6031 4.27776C33.6522 2.47599 35.4508 1.11382 37.6583 0.686378C41.8345 -0.122589 45.7706 2.76878 46.4884 6.83978L54.2698 50.9701C54.9876 55.0409 52.2778 59.1043 48.0767 59.7725ZM49.3458 51.8384C49.5994 53.2765 48.6148 54.6241 47.2914 54.8346C46.5538 54.9519 45.8385 54.7349 45.2981 54.2847L33.7747 44.6864C32.9368 43.9884 31.9566 43.4815 30.9026 43.2011C29.8487 42.9207 28.7463 42.8736 27.6722 43.063L12.7234 45.6989C10.0039 46.1784 7.41066 44.3626 6.93115 41.6431L5.19467 31.7951C4.71516 29.0756 6.531 26.4823 9.25045 26.0028L24.1993 23.3669C25.2734 23.1775 26.2931 22.7562 27.1876 22.1322C28.0821 21.5083 28.8297 20.6968 29.3784 19.7544M29.3784 19.7544L36.9241 6.79355C37.278 6.18571 37.876 5.73707 38.6089 5.59519C39.9246 5.34033 41.3108 6.26978 41.5644 7.70802L49.3458 51.8384" fill="#333333" fill-opacity="0.1"/>
<path fill-rule="evenodd" clip-rule="evenodd" d="M10.6646 62.8164C11.3838 66.8955 15.2736 69.6194 19.353 68.9001C23.4323 68.1808 26.1559 64.2908 25.4366 60.2117L24.7421 56.2725C24.5023 54.9128 23.2056 54.0048 21.8459 54.2446C20.4862 54.4843 19.5783 55.781 19.818 57.1407L20.5126 61.0799C20.7524 62.4397 19.8445 63.7363 18.4847 63.9761C17.125 64.2158 15.8284 63.3079 15.5886 61.9482L14.894 58.009C14.6542 56.6492 13.3576 55.7413 11.9979 55.9811C10.6381 56.2208 9.73021 57.5175 9.96997 58.8772L10.6646 62.8164Z" fill="#333333" fill-opacity="0.1"/>
<path fill-rule="evenodd" clip-rule="evenodd" d="M24.1652 38.6043C25.525 38.3645 26.4329 37.0679 26.1931 35.7081L25.3249 30.7841C25.0851 29.4244 23.7885 28.5165 22.4287 28.7562C21.069 28.996 20.1611 30.2926 20.4008 31.6524L21.2691 36.5764C21.5088 37.9361 22.8055 38.844 24.1652 38.6043Z" fill="#333333" fill-opacity="0.1"/>
</svg>
