<svg width="68" height="65" viewBox="0 0 68 65" fill="none" xmlns="http://www.w3.org/2000/svg">
<path fill-rule="evenodd" clip-rule="evenodd" d="M13.8737 11.0857C8.43481 12.0447 4.80308 17.2313 5.7621 22.6702L9.32234 42.8614C10.2811 48.2989 15.4663 51.9296 20.9039 50.9708L54.3899 45.0663C59.8288 44.1073 63.4605 38.9207 62.5015 33.4818L58.9417 13.2932C57.9827 7.85435 52.796 4.22261 47.3572 5.18164L13.8737 11.0857ZM0.83806 23.5385C-0.600478 15.3801 4.8471 7.60017 13.0055 6.16163L46.4889 0.257597C54.6473 -1.18094 62.4272 4.26663 63.8658 12.425L67.4255 32.6135C68.8641 40.7719 63.4165 48.5518 55.2581 49.9904L21.7721 55.8949C13.6151 57.3332 5.8366 51.8866 4.3983 43.7296L0.83806 23.5385ZM35.6345 15.344C37.0075 15.4892 38.0029 16.7201 37.8576 18.0931L35.6679 38.7878C35.5226 40.1608 34.2918 41.1561 32.9187 41.0108C31.5457 40.8656 30.5504 39.6347 30.6956 38.2617L32.8853 17.567C33.0306 16.194 34.2615 15.1987 35.6345 15.344ZM22.4698 20.8507C23.5999 21.6439 23.8729 23.2031 23.0796 24.3332L19.1007 30.0014C18.709 30.5589 18.8424 31.3234 19.3987 31.7155L25.0557 35.6097C26.193 36.3926 26.4803 37.9492 25.6974 39.0865C24.9145 40.2238 23.3579 40.5111 22.2206 39.7282L16.5552 35.8282C16.5508 35.8252 16.5464 35.8221 16.542 35.8191C13.7125 33.8443 13.0258 29.9515 15.0089 27.1279C15.009 27.1277 15.0092 27.1274 15.0094 27.1272L18.9873 21.4605C19.7806 20.3304 21.3398 20.0574 22.4698 20.8507ZM42.8655 17.2544C43.6561 16.1224 45.2146 15.8457 46.3465 16.6363L52.0227 20.6007C54.8525 22.5757 55.539 26.469 53.5553 29.2926C53.5522 29.297 53.5491 29.3014 53.546 29.3058L49.5561 34.9082C48.7552 36.0329 47.1942 36.2953 46.0695 35.4943C44.9449 34.6934 44.6824 33.1324 45.4834 32.0077L49.464 26.4184C49.4651 26.4169 49.4661 26.4154 49.4672 26.4138C49.856 25.8551 49.7199 25.0909 49.1611 24.7009L49.1604 24.7004L43.4835 20.7354C42.3516 19.9448 42.0749 18.3863 42.8655 17.2544ZM25.5391 62.8464C25.2993 61.4866 26.2072 60.19 27.567 59.9502L51.2024 55.7827C52.5621 55.5429 53.8587 56.4508 54.0985 57.8106C54.3382 59.1703 53.4303 60.4669 52.0706 60.7067L28.4352 64.8743C27.0755 65.114 25.7788 64.2061 25.5391 62.8464Z" fill="#333333" fill-opacity="0.1"/>
</svg>
