<svg width="72" height="72" viewBox="0 0 72 72" fill="none" xmlns="http://www.w3.org/2000/svg">
<path fill-rule="evenodd" clip-rule="evenodd" d="M12.1078 12.7964C8.02852 13.5157 5.30477 17.4056 6.02405 21.4848L7.32642 28.8709L62.9681 19.0598C64.3278 18.82 65.6244 19.7279 65.8642 21.0877L70.9 49.6471C72.0988 56.4458 67.5592 62.929 60.7605 64.1278L22.353 70.9001C15.5543 72.0989 9.07109 67.5593 7.87229 60.7606L1.10002 22.3531C-0.0987801 15.5544 4.4408 9.07116 11.2395 7.87237L49.647 1.10009C56.4457 -0.0987078 62.9289 4.44088 64.1277 11.2396C64.3675 12.5993 63.4595 13.896 62.0998 14.1357C60.7401 14.3755 59.4434 13.4676 59.2037 12.1078C58.4844 8.02859 54.5945 5.30485 50.5153 6.02413L12.1078 12.7964ZM8.19466 33.7949L12.7963 59.8923C13.5156 63.9716 17.4055 66.6953 21.4848 65.976L59.8923 59.2037C63.9715 58.4845 66.6952 54.5946 65.976 50.5153L61.3743 24.4179L8.19466 33.7949Z" fill="#333333" fill-opacity="0.1"/>
<path fill-rule="evenodd" clip-rule="evenodd" d="M22.1544 40.98C20.7947 41.2197 19.8868 42.5164 20.1265 43.8761L21.863 53.7242C22.1027 55.0839 23.3994 55.9919 24.7591 55.7521L29.6832 54.8839C31.0429 54.6441 31.9508 53.3474 31.7111 51.9877L29.9746 42.1397C29.7348 40.78 28.4381 39.872 27.0784 40.1118L22.1544 40.98ZM15.2025 44.7444C14.4832 40.6652 17.207 36.7752 21.2862 36.056L26.2102 35.1877C30.2894 34.4684 34.1794 37.1923 34.8986 41.2714L36.6351 51.1195C37.3544 55.1986 34.6306 59.0886 30.5514 59.8079L25.6274 60.6761C21.5482 61.3954 17.6582 58.6716 16.939 54.5925L15.2025 44.7444ZM38.9544 35.4791C38.7147 34.1194 39.6226 32.8227 40.9823 32.583L54.7696 30.1519C56.1294 29.9122 57.426 30.8201 57.6658 32.1798C57.9055 33.5396 56.9976 34.8362 55.6379 35.076L41.8506 37.507C40.4908 37.7468 39.1942 36.8389 38.9544 35.4791ZM40.6909 45.3272C40.4511 43.9675 41.3591 42.6708 42.7188 42.4311L56.5061 40C57.8658 39.7602 59.1625 40.6682 59.4023 42.0279C59.642 43.3876 58.7341 44.6843 57.3744 44.924L43.587 47.3551C42.2273 47.5949 40.9307 46.6869 40.6909 45.3272ZM42.4274 55.1753C42.1876 53.8155 43.0956 52.5189 44.4553 52.2791L58.2426 49.8481C59.6023 49.6083 60.899 50.5162 61.1387 51.876C61.3785 53.2357 60.4706 54.5324 59.1108 54.7721L45.3235 57.2032C43.9638 57.4429 42.6671 56.535 42.4274 55.1753Z" fill="#333333" fill-opacity="0.1"/>
</svg>
