<svg width="64" height="64" viewBox="0 0 64 64" fill="none" xmlns="http://www.w3.org/2000/svg">
<g clip-path="url(#clip0_233_1437)">
<path d="M12.3058 26.9453C12.7993 26.4505 13.3913 26.0651 14.0434 25.8141L60.0054 8.13645C60.4808 7.95403 60.9812 7.84524 61.4894 7.81382C61.5759 6.4317 61.0918 5.02057 60.0356 3.96445C58.5937 2.52257 56.4901 2.14532 54.7022 2.8332L8.74018 20.5108C8.08804 20.7619 7.49601 21.1473 7.00255 21.6421C5.04993 23.5947 5.04993 26.7606 7.00255 28.7132C7.6213 29.334 8.39304 29.7803 9.23968 30.0069L10.8426 30.4363C10.8537 29.1716 11.3408 27.9103 12.3058 26.9453Z" fill="#333333" fill-opacity="0.1"/>
<path d="M33.5191 30.481C34.4954 31.4573 36.0783 31.4574 37.0546 30.481L47.6613 19.8744C48.6376 18.8982 48.6376 17.3152 47.6613 16.3389C46.6849 15.3627 45.102 15.3625 44.1258 16.3389L33.5191 26.9455C32.5428 27.9218 32.5428 29.5047 33.5191 30.481Z" fill="#FFCC33"/>
<path d="M5.23481 19.8743C2.31056 22.7985 2.31056 27.5567 5.23481 30.4808C6.16458 31.411 7.32265 32.0804 8.59281 32.4217L25.3322 36.9053C26.1888 37.1347 26.8653 37.8112 27.0947 38.668L31.5782 55.4067C31.9195 56.6769 32.5888 57.8351 33.5191 58.765C36.4499 61.6959 41.1942 61.6967 44.1256 58.7652C44.8739 58.0169 45.4449 57.1393 45.8226 56.1572L63.5002 10.1952C64.5638 7.4304 63.8977 4.2909 61.8033 2.19653C59.7089 0.102153 56.5692 -0.563973 53.8047 0.499653L7.84269 18.1773C6.86044 18.5552 5.98294 19.126 5.23481 19.8743ZM8.77031 23.4098C9.01634 23.1623 9.31187 22.9695 9.63756 22.8442L55.5998 5.1664C56.5352 4.80653 57.5793 5.04365 58.2678 5.73215C58.6098 6.07465 58.8453 6.5089 58.9457 6.9824C59.0461 7.45589 59.0071 7.94833 58.8336 8.40015V8.40028L41.1557 54.3625C41.0303 54.6881 40.8376 54.9836 40.5901 55.2295C39.6132 56.2065 38.0319 56.2067 37.0546 55.2295C36.7394 54.9144 36.5219 54.5392 36.4081 54.1134L31.9244 37.3745C31.2342 34.7963 29.2076 32.7669 26.6256 32.0755L9.88619 27.5919C9.46081 27.478 9.08544 27.2605 8.77031 26.9453C7.79556 25.9705 7.79556 24.3845 8.77031 23.4098ZM0.732187 63.2677C1.70844 64.2439 3.29131 64.244 4.26769 63.2677L14.8743 52.661C15.8507 51.6847 15.8507 50.1018 14.8743 49.1255C13.8979 48.1493 12.3151 48.1492 11.3388 49.1255L0.732187 59.7322C-0.244062 60.7084 -0.244062 62.2913 0.732187 63.2677ZM18.4098 63.2677L25.4808 56.1967C26.4572 55.2203 26.4572 53.6374 25.4808 52.6612C24.5044 51.6849 22.9216 51.6848 21.9453 52.6612L14.8743 59.7322C13.8979 60.7085 13.8979 62.2914 14.8743 63.2677C15.8507 64.2439 17.4336 64.244 18.4098 63.2677ZM0.732187 49.1255C1.70844 50.1018 3.29131 50.1019 4.26769 49.1255L11.3387 42.0545C12.3151 41.0782 12.3151 39.4953 11.3387 38.519C10.3623 37.5428 8.77944 37.5427 7.80319 38.519L0.732187 45.59C-0.244062 46.5663 -0.244062 48.1492 0.732187 49.1255Z" fill="#333333"/>
</g>
<defs>
<clipPath id="clip0_233_1437">
<rect width="64" height="64" fill="white"/>
</clipPath>
</defs>
</svg>
