<svg width="32" height="32" viewBox="0 0 32 32" fill="none" xmlns="http://www.w3.org/2000/svg">
<g clip-path="url(#clip0_233_2351)">
<path d="M5 28.25V21C5 19.6193 6.11931 18.5 7.5 18.5H3.75C2.36931 18.5 1.25 19.6193 1.25 21V28.25C1.25 29.6307 2.36931 30.75 3.75 30.75H7.5C6.11931 30.75 5 29.6307 5 28.25Z" fill="#333333" fill-opacity="0.1"/>
<path fill-rule="evenodd" clip-rule="evenodd" d="M13.5 0C14.1904 0 14.75 0.559644 14.75 1.25V5H17.25V3.75C17.25 3.05964 17.8096 2.5 18.5 2.5C19.1904 2.5 19.75 3.05964 19.75 3.75V5H21C23.071 5 24.75 6.67896 24.75 8.75V12.6118L29.4446 14.2473C30.9711 14.7603 32 16.1908 32 17.8019V28.25C32 30.321 30.321 32 28.25 32H23.5C22.8096 32 22.25 31.4404 22.25 30.75V13.5291C22.2495 13.5098 22.2495 13.4904 22.25 13.471V8.75C22.25 8.05967 21.6903 7.5 21 7.5H11C10.3097 7.5 9.75 8.05967 9.75 8.75V29.5H12.25V28.25C12.25 26.179 13.929 24.5 16 24.5C18.071 24.5 19.75 26.179 19.75 28.25V30.75C19.75 31.4404 19.1904 32 18.5 32H3.75C1.67896 32 0 30.321 0 28.25V21C0 18.929 1.67896 17.25 3.75 17.25H7.25V8.75C7.25 6.67896 8.92896 5 11 5H12.25V1.25C12.25 0.559644 12.8096 0 13.5 0ZM7.25 19.75H3.75C3.05967 19.75 2.5 20.3097 2.5 21V28.25C2.5 28.9403 3.05967 29.5 3.75 29.5H7.25V19.75ZM14.75 29.5H17.25V28.25C17.25 27.5597 16.6903 27 16 27C15.3097 27 14.75 27.5597 14.75 28.25V29.5ZM24.75 15.2591V29.5H28.25C28.9403 29.5 29.5 28.9403 29.5 28.25V17.8019C29.5 17.2639 29.1557 16.7862 28.6453 16.616C28.6399 16.6143 28.6346 16.6125 28.6293 16.6106L24.75 15.2591Z" fill="#333333"/>
<path fill-rule="evenodd" clip-rule="evenodd" d="M12.25 11C12.25 10.3096 12.8096 9.75 13.5 9.75H18.5C19.1904 9.75 19.75 10.3096 19.75 11C19.75 11.6904 19.1904 12.25 18.5 12.25H13.5C12.8096 12.25 12.25 11.6904 12.25 11ZM12.25 16C12.25 15.3096 12.8096 14.75 13.5 14.75H18.5C19.1904 14.75 19.75 15.3096 19.75 16C19.75 16.6904 19.1904 17.25 18.5 17.25H13.5C12.8096 17.25 12.25 16.6904 12.25 16ZM12.25 21C12.25 20.3096 12.8096 19.75 13.5 19.75H18.5C19.1904 19.75 19.75 20.3096 19.75 21C19.75 21.6904 19.1904 22.25 18.5 22.25H13.5C12.8096 22.25 12.25 21.6904 12.25 21Z" fill="#FFCC33"/>
</g>
<defs>
<clipPath id="clip0_233_2351">
<rect width="32" height="32" fill="white"/>
</clipPath>
</defs>
</svg>
