<svg width="33" height="32" viewBox="0 0 33 32" fill="none" xmlns="http://www.w3.org/2000/svg">
<g clip-path="url(#clip0_233_2358)">
<path d="M5.55566 21V11C5.55566 8.23856 7.79423 6 10.5557 6H6.80566C4.04423 6 1.80566 8.23856 1.80566 11V21C1.80566 23.7614 4.04423 26 6.80566 26H10.5557C7.79423 26 5.55566 23.7614 5.55566 21Z" fill="#333333" fill-opacity="0.1"/>
<path d="M18.0557 18.5C18.0557 17.9202 17.9192 17.3408 17.6611 16.8244L15.1611 11.8244C14.5212 10.5449 13.2355 9.75 11.8057 9.75C10.3759 9.75 9.0901 10.5449 8.45023 11.8244L5.95016 16.8245C5.6921 17.3408 5.55566 17.9202 5.55566 18.5C5.55566 20.5677 7.23791 22.25 9.30566 22.25H14.3057C16.3734 22.25 18.0557 20.5677 18.0557 18.5ZM8.05566 18.5C8.05566 18.3034 8.09966 18.1159 8.18629 17.9425L10.6863 12.9426C10.8999 12.5154 11.3288 12.25 11.8057 12.25C12.2825 12.25 12.7115 12.5154 12.925 12.9425L15.425 17.9424C15.5117 18.1155 15.5564 18.3065 15.5557 18.5001C15.5557 19.1893 14.995 19.7501 14.3057 19.7501H9.30573C8.61641 19.75 8.05566 19.1892 8.05566 18.5Z" fill="#FFCC33"/>
<path d="M26.3057 4.75H6.80566C3.35941 4.75 0.555664 7.55375 0.555664 11V21C0.555664 24.0183 2.70635 26.5436 5.55566 27.1243V30.75C5.55566 31.4404 6.11529 32 6.80566 32C7.49604 32 8.05566 31.4404 8.05566 30.75V27.25H25.0557V30.75C25.0557 31.4404 25.6153 32 26.3057 32C26.996 32 27.5557 31.4404 27.5557 30.75V27.1243C30.405 26.5436 32.5557 24.0182 32.5557 21V11C32.5557 7.55375 29.7519 4.75 26.3057 4.75ZM30.0557 21C30.0557 23.0677 28.3734 24.75 26.3057 24.75H6.80566C4.73791 24.75 3.05566 23.0677 3.05566 21V11C3.05566 8.93225 4.73791 7.25 6.80566 7.25H26.3057C28.3734 7.25 30.0557 8.93225 30.0557 11V21ZM6.55566 0C5.86529 0 5.30566 0.559625 5.30566 1.25C5.30566 1.94037 5.86529 2.5 6.55566 2.5H9.05566C9.74604 2.5 10.3057 1.94037 10.3057 1.25C10.3057 0.559625 9.74604 0 9.05566 0H6.55566ZM14.0557 1.25C14.0557 1.94037 14.6153 2.5 15.3057 2.5H17.8057C18.496 2.5 19.0557 1.94037 19.0557 1.25C19.0557 0.559625 18.496 0 17.8057 0H15.3057C14.6153 0 14.0557 0.559625 14.0557 1.25ZM26.5557 2.5C27.246 2.5 27.8057 1.94037 27.8057 1.25C27.8057 0.559625 27.246 0 26.5557 0H24.0557C23.3653 0 22.8057 0.559625 22.8057 1.25C22.8057 1.94037 23.3653 2.5 24.0557 2.5H26.5557Z" fill="#333333"/>
<path d="M21.3057 12.25H23.8057C24.496 12.25 25.0557 11.6904 25.0557 11C25.0557 10.3096 24.496 9.75 23.8057 9.75H21.3057C20.6153 9.75 20.0557 10.3096 20.0557 11C20.0557 11.6904 20.6153 12.25 21.3057 12.25ZM26.3057 14.75H21.3057C20.6153 14.75 20.0557 15.3096 20.0557 16C20.0557 16.6904 20.6153 17.25 21.3057 17.25H26.3057C26.996 17.25 27.5557 16.6904 27.5557 16C27.5557 15.3096 26.996 14.75 26.3057 14.75ZM26.3057 19.75H21.3057C20.6153 19.75 20.0557 20.3096 20.0557 21C20.0557 21.6904 20.6153 22.25 21.3057 22.25H26.3057C26.996 22.25 27.5557 21.6904 27.5557 21C27.5557 20.3096 26.996 19.75 26.3057 19.75Z" fill="#333333"/>
</g>
<defs>
<clipPath id="clip0_233_2358">
<rect width="32" height="32" fill="white" transform="translate(0.555664)"/>
</clipPath>
</defs>
</svg>
