<svg width="33" height="32" viewBox="0 0 33 32" fill="none" xmlns="http://www.w3.org/2000/svg">
<g clip-path="url(#clip0_233_2367)">
<path d="M5.11108 20.75V3.75C5.11108 2.36925 6.23033 1.25 7.61108 1.25H3.86108C2.48033 1.25 1.36108 2.36925 1.36108 3.75V20.75C1.36108 22.1306 2.48033 23.25 3.86108 23.25H7.36108C5.98033 23.25 5.11108 22.1306 5.11108 20.75Z" fill="#333333" fill-opacity="0.1"/>
<path fill-rule="evenodd" clip-rule="evenodd" d="M3.86108 0C1.79004 0 0.111084 1.67896 0.111084 3.75V20.75C0.111084 22.821 1.79004 24.5 3.86108 24.5H7.11108V25.75C7.11108 27.1857 7.91838 28.431 9.09794 29.0602L13.5104 31.4138C14.2125 31.7883 15.0139 32 15.8611 32C16.7083 32 17.5098 31.7882 18.2117 31.4139L22.6244 29.0602C23.8038 28.431 24.6111 27.1858 24.6111 25.75V18.25C24.6111 16.8143 23.8038 15.569 22.6242 14.9398C21.058 14.1044 19.5122 13.15 17.8897 12.429C17.2685 12.153 16.5814 12 15.8611 12C15.0139 12 14.2125 12.2117 13.5104 12.5861L9.09782 14.9398C7.93141 15.5621 7.12878 16.8106 7.11123 18.2263L7.11108 22H3.86108C3.17075 22 2.61108 21.4403 2.61108 20.75V3.75C2.61108 3.05967 3.17075 2.5 3.86108 2.5H28.3611C29.0514 2.5 29.6111 3.05967 29.6111 3.75V20.75C29.6111 21.4403 29.0514 22 28.3611 22C27.6707 22 27.1111 22.5596 27.1111 23.25C27.1111 23.9404 27.6707 24.5 28.3611 24.5C30.4321 24.5 32.1111 22.821 32.1111 20.75V3.75C32.1111 1.67896 30.4321 0 28.3611 0H3.86108ZM9.61108 25.75C9.61108 26.2263 9.87705 26.6423 10.2745 26.8543L14.6111 29.1674V24.3422C14.2245 24.2426 13.8554 24.0978 13.5104 23.9138L9.61108 21.8339V25.75ZM9.61108 18.25C9.61108 18.7263 9.87705 19.1423 10.2745 19.3543L14.6871 21.708C15.0357 21.894 15.4342 22 15.8611 22C16.2879 22 16.6864 21.894 17.0352 21.708L21.4477 19.3544C21.8451 19.1424 22.1111 18.7262 22.1111 18.25C22.1111 17.7737 21.8451 17.3577 21.4477 17.1457L17.0351 14.792C16.6865 14.606 16.288 14.5 15.8611 14.5C15.4342 14.5 15.0358 14.6059 14.687 14.792L10.2745 17.1456C9.87705 17.3576 9.61108 17.7738 9.61108 18.25ZM22.1111 21.834L18.2117 23.9139C17.8668 24.0978 17.4977 24.2426 17.1111 24.3422V29.1675L21.4477 26.8544C21.8451 26.6424 22.1111 26.2262 22.1111 25.75V21.834Z" fill="#333333"/>
<path d="M7.61108 6.25C7.61108 6.94036 7.05144 7.5 6.36108 7.5C5.67073 7.5 5.11108 6.94036 5.11108 6.25C5.11108 5.55964 5.67073 5 6.36108 5C7.05144 5 7.61108 5.55964 7.61108 6.25Z" fill="#333333"/>
<path d="M12.6111 6.25C12.6111 6.94036 12.0514 7.5 11.3611 7.5C10.6707 7.5 10.1111 6.94036 10.1111 6.25C10.1111 5.55964 10.6707 5 11.3611 5C12.0514 5 12.6111 5.55964 12.6111 6.25Z" fill="#333333"/>
<path fill-rule="evenodd" clip-rule="evenodd" d="M17.3611 6.25C17.3611 5.55964 17.9207 5 18.6111 5H25.8611C26.5514 5 27.1111 5.55964 27.1111 6.25C27.1111 6.94036 26.5514 7.5 25.8611 7.5H18.6111C17.9207 7.5 17.3611 6.94036 17.3611 6.25Z" fill="#FFCC33"/>
</g>
<defs>
<clipPath id="clip0_233_2367">
<rect width="32" height="32" fill="white" transform="translate(0.111084)"/>
</clipPath>
</defs>
</svg>
