<svg width="33" height="32" viewBox="0 0 33 32" fill="none" xmlns="http://www.w3.org/2000/svg">
<g clip-path="url(#clip0_233_2337)">
<path d="M12.9845 12.9393L10.7758 3.34497H7.02576L9.23451 12.9393C9.61763 14.6037 11.1083 15.845 12.8889 15.845H16.6389C14.8583 15.845 13.3676 14.6037 12.9845 12.9393Z" fill="#333333" fill-opacity="0.1"/>
<path fill-rule="evenodd" clip-rule="evenodd" d="M0.888916 1.25C0.888916 0.559644 1.44856 0 2.13892 0H4.55354C6.00648 0 7.29938 0.834429 7.91886 2.09475H29.1389C31.2095 2.09475 32.8881 3.77292 32.8889 5.84329C32.8895 6.30475 32.8047 6.76234 32.6389 7.19299L30.0553 13.8932C29.334 15.764 27.5184 17.0947 25.3889 17.0947H24.1389C23.4486 17.0947 22.8889 16.535 22.8889 15.8447C22.8889 15.1543 23.4486 14.5947 24.1389 14.5947H25.3889C26.4507 14.5947 27.3609 13.9323 27.7227 12.9937L30.3058 6.29476C30.3059 6.29456 30.306 6.29436 30.3061 6.29416C30.361 6.15122 30.3891 5.99936 30.3889 5.84621V5.84475C30.3889 5.15442 29.8292 4.59475 29.1389 4.59475H8.59608L10.4526 12.659C10.7079 13.7683 11.7034 14.5947 12.8889 14.5947H19.1389C19.8293 14.5947 20.3889 15.1543 20.3889 15.8447C20.3889 16.535 19.8293 17.0947 19.1389 17.0947H12.9016C12.8974 17.0947 12.8931 17.0947 12.8889 17.0947H11.6389C10.9486 17.0947 10.3889 17.6544 10.3889 18.3447C10.3889 19.0351 10.9486 19.5947 11.6389 19.5947H29.1389C29.8293 19.5947 30.3889 20.1544 30.3889 20.8447C30.3889 21.5351 29.8293 22.0947 29.1389 22.0947H11.6389C9.56787 22.0947 7.88892 20.4158 7.88892 18.3447C7.88892 17.1985 8.4032 16.1724 9.21361 15.4845C8.63472 14.857 8.21448 14.0808 8.01628 13.2199L5.81375 3.65241C5.80937 3.63511 5.80535 3.61767 5.80171 3.6001L5.77165 3.46955C5.64104 2.90213 5.13587 2.5 4.55354 2.5H2.13892C1.44856 2.5 0.888916 1.94036 0.888916 1.25Z" fill="#333333"/>
<path fill-rule="evenodd" clip-rule="evenodd" d="M11.6389 27C10.9486 27 10.3889 27.5596 10.3889 28.25C10.3889 28.9404 10.9486 29.5 11.6389 29.5C12.3293 29.5 12.8889 28.9404 12.8889 28.25C12.8889 27.5596 12.3293 27 11.6389 27ZM7.88892 28.25C7.88892 26.1789 9.56785 24.5 11.6389 24.5C13.71 24.5 15.3889 26.1789 15.3889 28.25C15.3889 30.3211 13.71 32 11.6389 32C9.56785 32 7.88892 30.3211 7.88892 28.25ZM26.6389 27C25.9486 27 25.3889 27.5596 25.3889 28.25C25.3889 28.9404 25.9486 29.5 26.6389 29.5C27.3293 29.5 27.8889 28.9404 27.8889 28.25C27.8889 27.5596 27.3293 27 26.6389 27ZM22.8889 28.25C22.8889 26.1789 24.5678 24.5 26.6389 24.5C28.71 24.5 30.3889 26.1789 30.3889 28.25C30.3889 30.3211 28.71 32 26.6389 32C24.5678 32 22.8889 30.3211 22.8889 28.25Z" fill="#FFCC33"/>
</g>
<defs>
<clipPath id="clip0_233_2337">
<rect width="32" height="32" fill="white" transform="translate(0.888916)"/>
</clipPath>
</defs>
</svg>
