<svg width="33" height="32" viewBox="0 0 33 32" fill="none" xmlns="http://www.w3.org/2000/svg">
<g clip-path="url(#clip0_233_2344)">
<path d="M21.409 5.55064C21.2444 4.82283 20.988 4.15358 20.5932 3.61733C19.7167 2.42689 17.8845 2.64626 17.3609 4.02876L16.0091 10.5178C15.6396 11.4935 14.5491 11.985 13.5734 11.6154L11.9122 12.29L15.3424 13.6282C17.1373 14.3285 19.1327 13.2561 19.5392 11.3728L20.4867 6.55864C20.6683 6.07926 21.0073 5.74008 21.409 5.55064Z" fill="#333333" fill-opacity="0.1"/>
<path d="M28.2224 23.9681C27.8741 23.9681 27.5244 23.9056 27.1886 23.7785L5.97087 15.7189C4.34244 15.1022 3.05056 13.8875 2.33456 12.2987C1.61862 10.7101 1.56419 8.93762 2.18131 7.30793L2.18494 7.29849L3.43387 4.07918C3.68356 3.43562 4.40762 3.1163 5.05137 3.36593C5.695 3.61562 6.01431 4.3398 5.76462 4.98343L4.51756 8.1978C4.13869 9.20174 4.17281 10.2931 4.61381 11.2716C5.05537 12.2515 5.85219 13.0008 6.85731 13.3814L28.0751 21.441C28.2744 21.5165 28.4438 21.4146 28.5074 21.3672C28.5829 21.3108 28.7076 21.1872 28.6933 20.9925C28.5826 19.4824 27.832 18.4529 26.4621 17.9324L21.5125 16.1085C21.2807 16.0231 21.0794 15.8709 20.934 15.6711C20.7887 15.4714 20.7057 15.233 20.6957 14.9862L20.3742 7.05712C20.2661 5.82937 20.0011 4.92155 19.5865 4.35849C19.381 4.07937 19.1018 4.08449 18.9914 4.09968C18.8757 4.11555 18.675 4.17668 18.5596 4.40412C18.5596 4.40412 17.2012 10.8995 17.1781 10.9606C16.7032 12.2144 15.5065 12.988 14.2389 12.9881C13.8602 12.988 13.4847 12.919 13.1306 12.7845L7.37144 10.5733C6.72694 10.3259 6.40512 9.6028 6.65256 8.9583C6.9 8.31387 7.62325 7.99199 8.2675 8.23943L14.0214 10.4486C14.3229 10.5629 14.6642 10.4266 14.8107 10.1414C14.8107 10.1414 16.1687 3.64724 16.1919 3.58618C16.5986 2.51237 17.5181 1.77843 18.6517 1.62293C19.7864 1.46724 20.916 1.94762 21.5997 2.87637C22.3041 3.83312 22.7187 5.13962 22.8674 6.87074C22.8691 6.88949 23.1599 14.0513 23.1599 14.0513L27.3321 15.5888L27.3426 15.5927C29.6385 16.4622 31.0037 18.3149 31.1866 20.8098C31.2596 21.8058 30.8169 22.7633 30.0023 23.3711C29.4747 23.7646 28.8509 23.9681 28.2224 23.9681Z" fill="#333333"/>
<path d="M31.1946 30.4062H1.69458C1.00421 30.4062 0.44458 29.8466 0.44458 29.1562C0.44458 28.4659 1.00421 27.9062 1.69458 27.9062H31.1946C31.885 27.9062 32.4446 28.4659 32.4446 29.1562C32.4446 29.8466 31.885 30.4062 31.1946 30.4062Z" fill="#FFCC33"/>
</g>
<defs>
<clipPath id="clip0_233_2344">
<rect width="32" height="32" fill="white" transform="translate(0.44458)"/>
</clipPath>
</defs>
</svg>
