<svg width="33" height="32" viewBox="0 0 33 32" fill="none" xmlns="http://www.w3.org/2000/svg">
<g clip-path="url(#clip0_233_2328)">
<path d="M5.33337 2.56957L5.08269 2.45745C4.76748 2.32 4.42724 2.24929 4.08337 2.24976C2.70269 2.24976 1.58337 3.36907 1.58337 4.74976V22.2498C1.58337 23.3026 2.23419 24.2034 3.15531 24.5718L5.33337 25.4609V2.56957Z" fill="#333333" fill-opacity="0.1"/>
<path d="M2.68744 25.731L14.933 30.7292L14.9412 30.7325C15.838 31.0903 16.838 31.0891 17.7339 30.7292L29.9794 25.731C31.4096 25.1573 32.3335 23.7913 32.3335 22.25V4.74976C32.3335 2.68201 30.6512 0.999756 28.5835 0.999756C28.063 0.999756 27.5586 1.10476 27.0841 1.31182L27.0737 1.31638L16.8284 5.89826C16.5165 6.03301 16.1501 6.03294 15.8382 5.89819L5.593 1.31638C5.58961 1.31487 5.58621 1.31337 5.58281 1.31188C5.10844 1.10476 4.604 0.999756 4.08337 0.999756C2.01562 0.999756 0.333374 2.68201 0.333374 4.74976V22.2498C0.333374 23.7912 1.25725 25.1572 2.68744 25.731ZM2.83337 4.74976C2.83337 4.06051 3.39412 3.49976 4.08337 3.49976C4.256 3.49976 4.42237 3.53382 4.57806 3.60107L14.8238 8.18313L14.8342 8.18769C15.3089 8.39448 15.8213 8.50081 16.3391 8.50002C16.8569 8.49922 17.369 8.39131 17.8431 8.18307L28.0883 3.60119C28.2447 3.53378 28.4132 3.49923 28.5834 3.49969C29.2727 3.49969 29.8334 4.06044 29.8334 4.74969V22.2499C29.8334 22.7643 29.5248 23.2201 29.0472 23.4112L29.0391 23.4144L16.7936 28.4126C16.5019 28.5282 16.1649 28.5282 15.8732 28.4126L3.62769 23.4146L3.61956 23.4113C3.14194 23.2203 2.83337 22.7643 2.83337 22.2498V4.74976Z" fill="#333333"/>
<path d="M21.5475 23.7181L26.5475 21.7186C27.1885 21.4622 27.5003 20.7348 27.244 20.0938C26.9876 19.4528 26.2602 19.1409 25.6191 19.3973L20.6191 21.3968C19.9781 21.6531 19.6663 22.3806 19.9226 23.0216C20.1778 23.6595 20.9035 23.9756 21.5475 23.7181ZM6.08308 9.71376L11.0831 11.8973C11.713 12.1724 12.4515 11.8873 12.7289 11.252C13.0051 10.6193 12.7163 9.88245 12.0836 9.60614L7.08358 7.42264C6.45102 7.14639 5.71408 7.43526 5.43777 8.06795C5.16152 8.70064 5.45045 9.43745 6.08308 9.71376ZM20.3825 17.3425C20.5517 17.457 20.7463 17.5283 20.9494 17.5502C21.1525 17.5721 21.3578 17.5439 21.5475 17.4681L26.5475 15.4686C26.7795 15.3758 26.9784 15.2157 27.1184 15.0088C27.2585 14.8019 27.3334 14.5578 27.3334 14.308V8.5682C27.3334 8.36063 27.2817 8.15633 27.183 7.97373C27.0843 7.79114 26.9416 7.636 26.768 7.52232C26.5943 7.40864 26.395 7.34 26.1882 7.3226C25.9813 7.3052 25.7734 7.33958 25.5832 7.42264L20.5832 9.6057C20.3603 9.703 20.1707 9.86321 20.0375 10.0667C19.9043 10.2702 19.8333 10.5081 19.8333 10.7513V16.3075C19.8333 16.7222 20.0391 17.11 20.3825 17.3425ZM22.3333 11.5695L24.8333 10.478V13.4616L22.3333 14.4613V11.5695ZM12.0475 15.1468L7.04745 13.1473C6.85778 13.0715 6.65242 13.0433 6.44934 13.0652C6.24625 13.0871 6.05161 13.1584 5.88245 13.2729C5.71333 13.3874 5.57485 13.5417 5.47912 13.7221C5.3834 13.9025 5.33334 14.1037 5.33333 14.308V20.558C5.33332 20.8078 5.40818 21.0519 5.54826 21.2588C5.68834 21.4657 5.88721 21.6258 6.1192 21.7186L11.1192 23.7181C11.3089 23.7939 11.5142 23.8221 11.7173 23.8002C11.9204 23.7783 12.115 23.707 12.2842 23.5925C12.4533 23.478 12.5918 23.3237 12.6876 23.1433C12.7833 22.9629 12.8334 22.7617 12.8334 22.5575V16.3075C12.8334 16.0576 12.7585 15.8135 12.6184 15.6066C12.4783 15.3997 12.2794 15.2396 12.0475 15.1468ZM10.3333 20.7113L7.83333 19.7116V16.1541L10.3333 17.1538V20.7113Z" fill="#333333"/>
<path d="M17.5834 12.2498C17.5834 11.5594 17.0237 10.9998 16.3334 10.9998C15.643 10.9998 15.0834 11.5594 15.0834 12.2498V24.7498C15.0834 25.4401 15.643 25.9998 16.3334 25.9998C17.0237 25.9998 17.5834 25.4401 17.5834 24.7498V12.2498Z" fill="#FFCC33"/>
</g>
<defs>
<clipPath id="clip0_233_2328">
<rect width="32" height="32" fill="white" transform="translate(0.333374)"/>
</clipPath>
</defs>
</svg>
