<svg width="33" height="32" viewBox="0 0 33 32" fill="none" xmlns="http://www.w3.org/2000/svg">
<g clip-path="url(#clip0_233_2383)">
<path d="M14.9722 16C14.9722 13.9019 16.2651 12.1068 18.0972 11.3648C17.5015 11.1235 16.8648 10.9996 16.2222 11C13.4607 11 11.2222 13.2386 11.2222 16C11.2222 18.7614 13.4607 21 16.2222 21C16.8648 21.0004 17.5015 20.8765 18.0972 20.6352C16.2651 19.8933 14.9722 18.0981 14.9722 16Z" fill="#333333" fill-opacity="0.1"/>
<path fill-rule="evenodd" clip-rule="evenodd" d="M4.97217 4.28821V3.5C4.97217 2.80964 4.41252 2.25 3.72217 2.25C3.03181 2.25 2.47217 2.80964 2.47217 3.5V7.25C2.47217 7.94036 3.03181 8.5 3.72217 8.5H7.47217C8.16252 8.5 8.72217 7.94036 8.72217 7.25C8.72217 6.55964 8.16252 6 7.47217 6H6.80296C9.2427 3.76122 12.5439 2.5 16.2222 2.5C23.8161 2.5 29.7222 8.40611 29.7222 16C29.7222 17.2301 29.561 18.4207 29.2592 19.5524C29.0813 20.2195 29.4779 20.9044 30.1449 21.0823C30.812 21.2602 31.4969 20.8636 31.6748 20.1966C32.0321 18.8565 32.2222 17.4495 32.2222 16C32.2222 7.02539 25.1968 0 16.2222 0C11.8905 0 7.91344 1.51882 4.97217 4.28821ZM16.2222 7.25C16.9125 7.25 17.4722 7.80964 17.4722 8.5V9.87502C18.8248 10.1496 20.0188 10.861 20.9005 11.8556L22.0924 11.1675C22.6902 10.8223 23.4547 11.0271 23.7999 11.625C24.1451 12.2229 23.9402 12.9874 23.3424 13.3325L22.152 14.0198C22.3597 14.6421 22.4722 15.3079 22.4722 16C22.4722 16.6921 22.3597 17.3579 22.152 17.9802L23.3424 18.6675C23.9402 19.0126 24.1451 19.7771 23.7999 20.375C23.4547 20.9729 22.6902 21.1777 22.0924 20.8325L20.9005 20.1444C20.0188 21.139 18.8248 21.8504 17.4722 22.125V23.5C17.4722 24.1904 16.9125 24.75 16.2222 24.75C15.5318 24.75 14.9722 24.1904 14.9722 23.5V22.125C13.6195 21.8504 12.4255 21.139 11.5438 20.1444L10.352 20.8325C9.75411 21.1777 8.98963 20.9729 8.64445 20.375C8.29927 19.7771 8.50411 19.0126 9.10198 18.6675L10.2924 17.9802C10.0847 17.3579 9.97217 16.6921 9.97217 16C9.97217 15.3079 10.0847 14.6421 10.2924 14.0198L9.10198 13.3325C8.50411 12.9874 8.29927 12.2229 8.64445 11.625C8.98963 11.0271 9.75411 10.8223 10.352 11.1675L11.5438 11.8556C12.4255 10.861 13.6195 10.1496 14.9722 9.87502V8.5C14.9722 7.80964 15.5318 7.25 16.2222 7.25ZM12.9564 14.1554C12.9626 14.1454 12.9687 14.1353 12.9746 14.125C12.9802 14.1153 12.9857 14.1055 12.991 14.0956C13.6435 12.991 14.8463 12.25 16.2222 12.25C17.5981 12.25 18.8009 12.991 19.4533 14.0957C19.4587 14.1055 19.4641 14.1153 19.4698 14.125C19.4757 14.1353 19.4817 14.1454 19.4879 14.1554C19.7962 14.7001 19.9722 15.3295 19.9722 16C19.9722 16.6705 19.7962 17.2999 19.4879 17.8446C19.4817 17.8546 19.4757 17.8647 19.4698 17.875C19.4641 17.8847 19.4587 17.8945 19.4533 17.9043C18.8009 19.009 17.5981 19.75 16.2222 19.75C14.8463 19.75 13.6435 19.009 12.991 17.9044C12.9857 17.8945 12.9802 17.8847 12.9746 17.875C12.9687 17.8647 12.9626 17.8546 12.9564 17.8446C12.6481 17.2999 12.4722 16.6705 12.4722 16C12.4722 15.3295 12.6481 14.7001 12.9564 14.1554Z" fill="#333333"/>
<path fill-rule="evenodd" clip-rule="evenodd" d="M2.25631 11.0395C2.92488 11.2116 3.32736 11.8931 3.15527 12.5616C2.87276 13.6593 2.72217 14.8112 2.72217 16.0001C2.72217 23.594 8.62827 29.5001 16.2222 29.5001C19.8314 29.5001 23.0776 28.2857 25.5031 26.1251H24.9722C24.2818 26.1251 23.7222 25.5654 23.7222 24.8751C23.7222 24.1847 24.2818 23.6251 24.9722 23.6251H28.7222C29.4125 23.6251 29.9722 24.1847 29.9722 24.8751V28.5001C29.9722 29.1904 29.4125 29.7501 28.7222 29.7501C28.0318 29.7501 27.4722 29.1904 27.4722 28.5001V27.7119C24.5309 30.4812 20.5538 32.0001 16.2222 32.0001C7.24756 32.0001 0.222168 24.9747 0.222168 16.0001C0.222168 14.5992 0.399705 13.238 0.734187 11.9385C0.90627 11.2699 1.58775 10.8674 2.25631 11.0395Z" fill="#FFCC33"/>
</g>
<defs>
<clipPath id="clip0_233_2383">
<rect width="32" height="32" fill="white" transform="translate(0.222168)"/>
</clipPath>
</defs>
</svg>
