<svg width="33" height="32" viewBox="0 0 33 32" fill="none" xmlns="http://www.w3.org/2000/svg">
<g clip-path="url(#clip0_233_2374)">
<path d="M5.66675 26.4541V11.4541C5.66675 8.69266 7.90531 6.4541 10.6667 6.4541H6.91675C4.15531 6.4541 1.91675 8.69266 1.91675 11.4541V26.4541C1.91675 27.8348 3.03606 28.9541 4.41675 28.9541C5.05669 28.9541 5.6405 28.7136 6.08287 28.3181L6.30369 28.1206C5.90775 27.6783 5.66675 27.0944 5.66675 26.4541Z" fill="#333333" fill-opacity="0.1"/>
<path d="M6.91675 20.2041H10.6667C11.3571 20.2041 11.9167 19.6445 11.9167 18.9541C11.9167 18.2637 11.3571 17.7041 10.6667 17.7041H6.91675C6.22637 17.7041 5.66675 18.2637 5.66675 18.9541C5.66675 19.6445 6.22637 20.2041 6.91675 20.2041ZM6.91675 15.2041H10.6667C11.3571 15.2041 11.9167 14.6445 11.9167 13.9541C11.9167 13.2637 11.3571 12.7041 10.6667 12.7041H6.91675C6.22637 12.7041 5.66675 13.2637 5.66675 13.9541C5.66675 14.6445 6.22637 15.2041 6.91675 15.2041Z" fill="#FFCC33"/>
<path d="M14.2568 18.9541C14.2568 19.6444 14.8165 20.2041 15.5068 20.2041C18.1206 20.2041 20.578 19.1862 22.4263 17.3379L31.5675 8.1958C33.033 6.73037 33.0333 4.35818 31.5675 2.89249C30.1055 1.43037 27.7264 1.43037 26.2642 2.89249L17.123 12.0346C15.2748 13.8829 14.2568 16.3402 14.2568 18.9541ZM28.0321 4.6603C28.5193 4.17293 29.3125 4.17293 29.7998 4.6603C30.2883 5.14868 30.2885 5.93949 29.7998 6.42805L20.6585 15.5702C19.6135 16.6152 18.307 17.3036 16.8865 17.5744C17.1573 16.154 17.8458 14.8474 18.8906 13.8024L28.0321 4.6603Z" fill="#333333"/>
<path d="M4.41675 30.2041C5.33901 30.2046 6.22902 29.8648 6.91625 29.2497L8.64419 27.7041H21.4167C24.8631 27.7041 27.6667 24.9004 27.6667 21.4541V18.6502C27.6667 17.9598 27.1071 17.4002 26.4167 17.4002C25.7264 17.4002 25.1667 17.9598 25.1667 18.6502V21.4541C25.1667 23.5219 23.4845 25.2041 21.4167 25.2041H8.16675C7.85926 25.2041 7.56256 25.3174 7.33337 25.5224L5.24975 27.3862C5.02069 27.5911 4.72408 27.7043 4.41675 27.7041C3.7275 27.7041 3.16675 27.1434 3.16675 26.4541V11.4541C3.16675 9.38635 4.849 7.7041 6.91675 7.7041H17.4011C18.0914 7.7041 18.6511 7.14448 18.6511 6.4541C18.6511 5.76373 18.0914 5.2041 17.4011 5.2041H6.91675C3.47044 5.2041 0.666748 8.00785 0.666748 11.4541V26.4541C0.666748 28.5219 2.349 30.2041 4.41675 30.2041Z" fill="#333333"/>
</g>
<defs>
<clipPath id="clip0_233_2374">
<rect width="32" height="32" fill="white" transform="translate(0.666748)"/>
</clipPath>
</defs>
</svg>
